<svg width="15px" height="15px" viewBox="0 0 15 15" version="1.1" xmlns="http://www.w3.org/2000/svg" xmlns:xlink="http://www.w3.org/1999/xlink">
    <g id="Page-1" stroke="none" stroke-width="1" fill="none" fill-rule="evenodd">
        <path d="M3.59233964,3.66359447 L3.59233964,5.39170507 C4.9125978,5.22735412 5.51553212,5.62230803 6.24974705,6.01382488 C6.24974705,5.52995392 6.27132754,5.04553527 6.24974705,4.56221198 C6.23278842,4.1824011 4.89058555,3.73271889 4.49974705,3.73271889 L3.59233964,3.66359447 Z M11.175673,5.39170507 L12.4071545,5.39170507 L12.4071545,3.66359447 L11.6293767,3.66359447 C10.1587165,3.94861459 10.2216799,4.1910226 9.74974705,4.56221198 C9.7582445,4.761721 9.76898895,4.79322864 9.75531707,6.0351225 C10.2054129,5.7007736 10.0719011,5.77291326 10.3978952,5.59907834 C10.3978952,5.59907834 10.9488176,5.44009292 11.175673,5.39170507 Z M0.999747051,0.69124424 C0.999747051,4.44700461 1.02135158,8.20283565 0.999747051,11.9585253 C0.996188161,12.5771957 1.5349726,12.7224576 2.16641372,12.8571429 L2.62011742,12.8571429 L2.62011742,12.9262673 L3.26826557,12.9262673 L3.26826557,12.9953917 L3.98122853,12.9953917 L3.98122853,13.0645161 L4.49974705,13.0645161 L4.49974705,13.1336406 C6.43191098,13.2095884 6.68695855,13.8764204 7.54604335,14.7926267 C7.79265598,15.0556369 7.97183588,14.9011086 7.99974705,14.9308756 C8.09869965,15.0364076 8.0076452,14.9741508 8.32382112,14.8617512 C8.6486874,14.7462622 9.06757427,13.5694694 11.1108582,13.1336406 L11.4997471,13.1336406 L11.4997471,13.0645161 L12.0182656,13.0645161 L12.0182656,12.9953917 L12.7312285,12.9953917 L12.7312285,12.9262673 L13.3793767,12.9262673 L13.3793767,12.8571429 C14.2193714,12.8389892 14.9997471,12.6756506 14.9997471,11.9585253 C14.9840272,11.3022919 14.9780366,1.13231747 14.9767074,0.641493556 C14.9753782,0.150669643 14.546613,0.185333111 14.3888484,0.0721789945 C14.1273422,0.0057547433 14.0275248,0.0230414747 14.0275248,0 L11.7590063,0 C11.7590063,0.0230414747 9.36918155,0.526938724 8.51826557,1.17511521 C8.47043023,1.21155328 8.00295132,1.8026166 7.99974705,1.79723502 C7.57743802,1.08796713 5.99702849,0.360842123 4.62937668,0.069124424 L4.24048779,0.069124424 L4.24048779,0 L1.97196927,0 L1.97196927,0.069124424 C1.67135769,0.0955312408 1.41484675,0.0897098389 1.1941915,0.207373272 C1.13188908,0.323904082 1.02796482,0.570868232 0.999747051,0.69124424 Z M2.68493224,1.7281106 L3.72196927,1.7281106 L3.72196927,1.79723502 L4.37011742,1.79723502 L4.37011742,1.86635945 L4.82382112,1.86635945 L4.82382112,1.93548387 C5.77740782,1.91796186 6.46331557,2.38007044 7.15715446,2.62672811 C7.14677396,9.47531142 7.21741198,5.12168779 7.17090854,12.0267636 C7.08803553,12.2328629 6.26442846,11.5932014 5.01826557,11.3364055 L4.56456187,11.3364055 L4.56456187,11.2672811 L3.98122853,11.2672811 L3.98122853,11.1981567 L2.68493224,11.1981567 L2.68493224,1.79723502 L2.68493224,1.7281106 Z M8.88531744,2.68984465 C9.35161699,2.28063346 9.77673319,2.15092593 10.7867841,1.93548387 L11.175673,1.93548387 L11.175673,1.86635945 L11.6293767,1.86635945 L11.6293767,1.79723502 L12.2775248,1.79723502 L12.2775248,1.7281106 L13.3145619,1.7281106 L13.3145619,11.1981567 L12.0182656,11.1981567 L12.0182656,11.2672811 L11.4349322,11.2672811 L11.4349322,11.3364055 C10.3993819,11.4082037 9.6395078,11.7188396 8.89519157,12.1157429 C8.89519157,10.8715033 8.81980637,3.13267299 8.88531744,2.68984465 Z M11.6293767,7.39631336 L11.6293767,7.46543779 C10.7055311,7.39170598 10.0125825,8.04003456 9.74974705,8.29493088 C9.73571941,8.95553523 9.74345629,9.53762031 9.78281906,9.72180345 C10.2347188,9.44722962 10.1990494,9.33273603 11.175673,9.12442396 L12.4071545,9.12442396 C12.4071545,7.32718894 12.418611,7.33272429 12.296387,7.35668833 C12.296387,7.35668833 11.8238211,7.39631336 11.6293767,7.39631336 Z M6.24974705,8.22580645 C6.25288019,9.02458507 6.23129635,8.49413612 6.23050515,9.73415674 C5.880195,9.464882 5.72278353,9.31617105 4.82382112,9.12442396 L3.59233964,9.12442396 L3.59233964,7.39631336 C4.02847879,7.3382259 4.44233964,7.53456221 5.01826557,7.53456221 C5.53363265,7.62651359 5.84645839,7.96588107 6.24974705,8.22580645 Z" id="Shape-2" fill="#aaa" sketch:type="MSShapeGroup">
    </path>
  </g>
</svg>
