<?xml version="1.0" encoding="utf-8"?>
<!-- Generator: Adobe Illustrator 15.0.2, SVG Export Plug-In . SVG Version: 6.00 Build 0)  -->
<!DOCTYPE svg PUBLIC "-//W3C//DTD SVG 1.1//EN" "http://www.w3.org/Graphics/SVG/1.1/DTD/svg11.dtd">
<svg version="1.1" id="Layer_1" xmlns="http://www.w3.org/2000/svg" xmlns:xlink="http://www.w3.org/1999/xlink" x="0px" y="0px"
	 width="16px" height="16px" viewBox="0 0 16 16" enable-background="new 0 0 16 16" xml:space="preserve">
<path d="M10.741,15.715c-0.079,0.027-0.156,0.062-0.236,0.076c-0.307,0.055-0.503-0.104-0.506-0.418
	c-0.004-0.582-0.004-1.165,0.006-1.749c0.009-0.67-0.006-1.333-0.518-1.886c0.305-0.053,0.575-0.091,0.838-0.152
	c1.75-0.402,2.66-1.505,2.776-3.337c0.058-0.933-0.108-1.788-0.728-2.522c-0.044-0.051-0.047-0.168-0.026-0.244
	c0.165-0.607,0.117-1.2-0.076-1.793c-0.047-0.148-0.124-0.194-0.271-0.185c-0.515,0.028-0.984,0.209-1.399,0.486
	c-0.4,0.269-0.772,0.327-1.248,0.218c-1.047-0.236-2.1-0.167-3.144,0.075c-0.118,0.028-0.277-0.01-0.386-0.073
	c-0.49-0.288-0.98-0.567-1.545-0.678C3.841,3.448,3.803,3.47,3.687,3.893c-0.146,0.533-0.16,1.066-0.011,1.603
	c0.021,0.078-0.001,0.203-0.053,0.261C2.464,7.048,2.884,9.49,3.665,10.425c0.607,0.728,1.414,1.054,2.309,1.226
	c0.156,0.028,0.312,0.051,0.468,0.077c-0.134,0.349-0.254,0.678-0.391,1.002c-0.026,0.062-0.111,0.115-0.18,0.143
	c-0.878,0.34-1.633,0.09-2.135-0.708c-0.269-0.424-0.613-0.741-1.127-0.833c-0.017-0.003-0.033-0.013-0.048-0.01
	c-0.138,0.035-0.275,0.074-0.413,0.11c0.077,0.107,0.132,0.254,0.236,0.318c0.435,0.276,0.718,0.669,0.906,1.132
	c0.293,0.726,0.865,1.051,1.605,1.113C5.256,14.025,5.622,14,6.018,14c0,0.451,0.017,0.965-0.006,1.479
	C6,15.756,5.722,15.866,5.39,15.753c-0.882-0.301-1.7-0.735-2.406-1.344c-2.55-2.195-3.533-4.973-2.686-8.224
	c0.846-3.24,3.047-5.228,6.339-5.851c4.556-0.861,8.873,2.456,9.325,7.081C16.318,11.062,14.173,14.473,10.741,15.715z
	 M6.447,11.711c-0.003,0.006-0.005,0.011-0.008,0.017c0.008,0.001,0.017,0.003,0.025,0.004C6.47,11.733,6.476,11.744,6.447,11.711z
	 M4.385,13.151c0.071,0.044,0.139,0.1,0.216,0.124c0.028,0.009,0.08-0.055,0.173-0.124c-0.128-0.047-0.203-0.09-0.283-0.101
	C4.46,13.046,4.42,13.115,4.385,13.151z M5.034,13.262c0.011,0.049,0.105,0.108,0.161,0.108c0.054-0.003,0.106-0.073,0.161-0.113
	c-0.049-0.045-0.098-0.089-0.249-0.225C5.075,13.127,5.021,13.201,5.034,13.262z M5.831,13.071c-0.067,0.015-0.124,0.077-0.185,0.12
	c0.036,0.046,0.071,0.087,0.129,0.157c0.079-0.071,0.133-0.123,0.188-0.171C5.917,13.139,5.865,13.062,5.831,13.071z M3.856,12.803
	c0.038,0.069,0.095,0.13,0.173,0.229c0.052-0.086,0.108-0.15,0.099-0.163c-0.05-0.066-0.117-0.119-0.183-0.166
	C3.941,12.699,3.849,12.786,3.856,12.803z"/>
</svg>
