<svg xmlns="http://www.w3.org/2000/svg" xmlns:xlink="http://www.w3.org/1999/xlink" width="16px" height="16px" viewBox="174.907 198.5 12.932 14.688">
  <path id="path-1" sketch:type="MSShapeGroup" d="M180.614,201.249c0-0.337,0.273-0.609,0.61-0.609h3.731c0.337,0,0.609,0.272,0.609,0.609 s-0.272,0.609-0.609,0.609h-3.731C180.887,201.858,180.614,201.585,180.614,201.249z M186.561,213.188 c0.94,0,1.559-0.984,1.151-1.832l-1.976-4.107c-0.549-1.142-0.835-2.394-0.835-3.663v-0.814h-1.211c0,0.863-0.146,2.729,0.948,5.006 c1.098,2.283,1.51,3.156,1.731,3.617c0.248,0.514-0.457,0.781-0.696,0.285l-2.159-4.531h-1.698c0.773-1.943,0.67-3.513,0.67-4.377 h-1.211v0.814c0,1.268-0.285,2.52-0.834,3.662l-1.975,4.107c-0.407,0.848,0.211,1.832,1.151,1.832H186.561z M177.791,199.718h3.732 c0.337,0,0.609-0.272,0.609-0.609s-0.272-0.609-0.609-0.609h-3.732c-0.336,0-0.608,0.273-0.608,0.609 S177.455,199.718,177.791,199.718z M178.005,209.83h-1.429c-0.224,0-0.372-0.234-0.274-0.436c0.222-0.461,0.708-1.473,1.806-3.756 c1.072-2.23,0.946-4.05,0.946-5.005h-1.209v0.814c0,1.268-0.286,2.52-0.835,3.663l-1.975,4.107c-0.407,0.85,0.211,1.832,1.151,1.832 h1.242L178.005,209.83z" />
</svg>
